<?xml version="1.0" encoding="utf-8"?>
<!-- Generator: Adobe Illustrator 24.0.1, SVG Export Plug-In . SVG Version: 6.00 Build 0)  -->
<svg version="1.1" id="Calque_1" xmlns="http://www.w3.org/2000/svg" xmlns:xlink="http://www.w3.org/1999/xlink" x="0px" y="0px"
	 viewBox="0 0 283.5 85.7" style="enable-background:new 0 0 283.5 85.7;" xml:space="preserve">
<style type="text/css">
	.st0{fill:#FFFFFF;}
</style>
<title>Plan de travail 1</title>
<path class="st0" d="M4.2,38.7c0,0,4.7,4.5,10.7,4.5c3.3,0,6.2-1.7,6.2-5.2c0-7.7-20.3-6.4-20.3-19.6C0.9,11.3,7.1,6,15.3,6
	c8.5,0,12.8,4.6,12.8,4.6l-3.4,6.4c-2.7-2.3-6-3.6-9.5-3.8c-3.6,0-6.5,2.1-6.5,5.1c0,7.6,20.2,5.8,20.2,19.5
	c0,6.8-5.2,12.6-14.2,12.6C9.3,50.5,4,48.4,0,44.5L4.2,38.7z"/>
<path class="st0" d="M47.1,21.2c7.3,0,10.7,4.2,10.7,4.2l-3.1,4.8c-2-1.9-4.6-2.9-7.3-3c-4.6-0.1-8.4,3.5-8.5,8.1c0,0.2,0,0.4,0,0.5
	c-0.2,4.7,3.5,8.6,8.2,8.7c0.2,0,0.3,0,0.5,0c4.7,0,8.2-3.5,8.2-3.5l2.7,4.9c-3.1,3-7.2,4.6-11.5,4.5c-9.2,0-15.1-6.5-15.1-14.6
	C31.9,27.8,37.8,21.2,47.1,21.2"/>
<path class="st0" d="M62.6,10.9h6.9v6.2h-6.9V10.9z M62.6,21.8h6.9v27.8h-6.9V21.8z"/>
<path class="st0" d="M88.3,21.2c8,0,12.3,5.8,12.3,13.2c0,0.8-0.2,2.7-0.2,2.7H81.3c0.4,4.9,4.2,7.4,8.4,7.4c2.9-0.1,5.7-1.2,8-3.1
	l2.7,5c-3.1,2.6-7.1,4-11.2,4c-9.2,0-15-6.7-15-14.6C74.1,27.2,79.9,21.2,88.3,21.2 M93.6,32.4c-0.1-3.8-2.5-5.8-5.5-5.8
	c-3.5,0-6,2.2-6.7,5.8H93.6z"/>
<path class="st0" d="M105.3,21.8h6.7v3.2c0,0.6,0,1.3-0.1,1.9h0.1c1.9-3.7,5.8-5.9,9.9-5.8c6.2,0,9.7,3.2,9.7,10.6v17.9h-6.9V33.2
	c0-3.4-0.9-5.7-4.4-5.7c-3.5,0-6.6,2.3-7.5,5.7c-0.4,1.2-0.5,2.5-0.5,3.7v12.8h-6.9V21.8z"/>
<path class="st0" d="M150.8,21.2c7.3,0,10.7,4.2,10.7,4.2l-3.1,4.8c-2-1.9-4.6-2.9-7.3-3c-4.6-0.1-8.4,3.5-8.5,8.1
	c0,0.2,0,0.4,0,0.5c-0.2,4.7,3.5,8.6,8.2,8.7c0.2,0,0.3,0,0.5,0c4.7,0,8.2-3.5,8.2-3.5l2.7,4.9c-3.1,3-7.2,4.6-11.5,4.5
	c-9.2,0-15.1-6.5-15.1-14.6C135.6,27.8,141.5,21.2,150.8,21.2"/>
<path class="st0" d="M178.5,21.2c8,0,12.3,5.8,12.3,13.2c0,0.8-0.2,2.7-0.2,2.7h-19.2c0.4,4.9,4.2,7.4,8.4,7.4
	c2.9-0.1,5.7-1.2,8-3.1l2.7,5c-3.1,2.6-7.1,4-11.2,4c-9.2,0-15-6.7-15-14.6C164.3,27.2,170.1,21.2,178.5,21.2 M183.8,32.4
	c-0.1-3.8-2.5-5.8-5.5-5.8c-3.6,0-6,2.2-6.7,5.8H183.8z"/>
<path class="st0" d="M197.4,41.4c2.1,1.9,4.8,3,7.6,3.1c2,0,3.7-0.9,3.7-2.5c0-4.2-13.5-3.6-13.5-12.6c0-5.2,4.6-8.2,10.6-8.2
	c6.3,0,9.3,3.2,9.3,3.2l-2.6,5.1c-1.9-1.6-4.3-2.4-6.8-2.4c-1.8,0-3.6,0.8-3.6,2.5c0,3.9,13.5,3.4,13.5,12.4c0,4.6-4,8.3-10.6,8.3
	c-4,0.1-7.9-1.4-10.8-4.1L197.4,41.4z"/>
<path class="st0" d="M221.8,6.7h16.6c8,0,13.7,5.6,13.7,14s-5.6,14.2-13.7,14.2h-8.8v14.8h-7.8L221.8,6.7z M236.9,28.1
	c4.5,0,7.2-2.9,7.2-7.4s-2.7-7.3-7.1-7.3h-7.4v14.6H236.9z"/>
<path class="st0" d="M268.1,21.2c8.5,0,15.3,6.1,15.3,14.6s-6.8,14.6-15.3,14.6s-15.3-6-15.3-14.6S259.7,21.2,268.1,21.2
	 M268.2,44.4c4.5,0,8.2-3.5,8.2-8.7c0.2-4.6-3.3-8.5-7.9-8.7c-4.6-0.2-8.5,3.3-8.7,7.9c0,0.3,0,0.5,0,0.8c-0.2,4.6,3.3,8.5,7.9,8.7
	C267.9,44.4,268,44.4,268.2,44.4"/>
<path class="st0" d="M8.6,75H3.4l-1.3,3.8h-2.8l5.2-14.9h2.8l5.3,14.9H9.9L8.6,75z M6,66.5c0,0-0.3,1.5-0.6,2.3l-1.3,4h3.9l-1.3-4
	C6.3,67.9,6,66.5,6,66.5L6,66.5z"/>
<path class="st0" d="M16.8,66.2h-4.9v-2.3h12.5v2.3h-4.9v12.6h-2.7V66.2z"/>
<path class="st0" d="M26.4,63.9h8.9v2.3h-6.2v3.9h5v2.3h-5v4h6.6v2.3h-9.3V63.9z"/>
<path class="st0" d="M38.4,63.9h2.7v12.6h6.5v2.3h-9.2V63.9z"/>
<path class="st0" d="M49.8,63.9h2.7v14.9h-2.7V63.9z"/>
<path class="st0" d="M56.2,63.9h8.9v2.3H59v3.9h5v2.3h-5v4h6.6v2.3h-9.3V63.9z"/>
<path class="st0" d="M68.3,63.9h4.8c1-0.1,2,0.1,3,0.4c1.6,0.7,2.5,2.4,2.4,4.1c0.1,1.7-0.9,3.4-2.5,4.1l0,0
	c0.2,0.2,0.4,0.5,0.5,0.7l3.1,5.6h-3l-3-5.6H71v5.6h-2.7V63.9z M73.5,70.9c1.2,0.1,2.2-0.8,2.4-2c0-0.1,0-0.3,0-0.4
	c0-1.4-0.6-2.3-2.7-2.3H71v4.7H73.5z"/>
<path class="st0" d="M87.2,63.9h5.1c4.6,0,7.6,2.7,7.6,7.4s-3,7.5-7.6,7.5h-5.1V63.9z M92.2,76.5c3,0,4.9-1.8,4.9-5.1
	s-2-5.1-4.9-5.1h-2.2v10.2H92.2z"/>
<path class="st0" d="M102.8,63.9h8.9v2.3h-6.2v3.9h5v2.3h-5v4h6.6v2.3h-9.3V63.9z"/>
<path class="st0" d="M126.6,63.6c2-0.1,4,0.6,5.5,2l-1.3,2c-1.1-1-2.6-1.5-4.1-1.6c-2.7-0.1-4.9,2-5,4.7c0,0.1,0,0.3,0,0.4
	c-0.2,2.8,1.9,5.1,4.6,5.3c0.1,0,0.2,0,0.4,0c1.6-0.1,3.2-0.7,4.3-1.9l1.4,2c-1.5,1.6-3.7,2.4-5.9,2.4c-4.3-0.2-7.6-3.7-7.4-8
	C119.3,67,122.5,63.8,126.6,63.6L126.6,63.6z"/>
<path class="st0" d="M142.4,75h-5.2l-1.3,3.8h-2.8l5.2-14.9h2.8l5.2,14.9h-2.8L142.4,75z M139.8,66.5c0,0-0.3,1.5-0.6,2.3l-1.3,4
	h3.9l-1.3-4C140.1,67.9,139.8,66.5,139.8,66.5L139.8,66.5z"/>
<path class="st0" d="M148.3,63.9h4.8c1-0.1,2,0.1,3,0.4c1.6,0.7,2.5,2.3,2.4,4.1c0.1,1.7-0.9,3.3-2.5,4.1l0,0
	c0.2,0.2,0.4,0.5,0.5,0.7l3.1,5.6h-3l-3-5.6H151v5.6h-2.7L148.3,63.9z M153.5,70.9c1.2,0.1,2.2-0.8,2.4-2c0-0.1,0-0.3,0-0.4
	c0-1.4-0.6-2.3-2.7-2.3h-2.1v4.7H153.5z"/>
<path class="st0" d="M165.2,66.2h-4.9v-2.3h12.5v2.3H168v12.6h-2.7V66.2z"/>
<path class="st0" d="M181.4,63.6c4.2-0.1,7.6,3.2,7.7,7.4c0,0.1,0,0.2,0,0.2c0.2,4.3-3.2,7.8-7.4,8s-7.8-3.2-8-7.4
	c0-0.2,0-0.4,0-0.6c0-4.2,3.3-7.6,7.5-7.6C181.2,63.6,181.3,63.6,181.4,63.6z M181.4,76.6c2.8-0.1,5-2.4,4.9-5.2c0,0,0-0.1,0-0.1
	c0.1-2.7-2-5-4.7-5.1s-5,2-5.1,4.7c0,0.1,0,0.3,0,0.4c-0.2,2.8,2,5.2,4.8,5.3C181.3,76.6,181.3,76.6,181.4,76.6z"/>
<path class="st0" d="M198.5,63.6c2-0.1,4,0.6,5.5,1.9l-1.3,2c-1.1-0.9-2.5-1.4-4-1.4c-2.7-0.2-5,1.9-5.1,4.5c0,0.2,0,0.4,0,0.6
	c-0.2,2.8,1.9,5.1,4.6,5.3c0.1,0,0.2,0,0.4,0c1.4,0,2.7-0.6,3.7-1.6v-1.7H200v-2.3h4.7v7.8h-2.2v-0.7c0-0.3,0-0.6,0-0.6l0,0
	c-1.2,1.1-2.7,1.6-4.3,1.6c-4,0-7.3-3.3-7.3-7.3c0-0.1,0-0.2,0-0.4c-0.1-4.2,3.2-7.6,7.3-7.7C198.3,63.6,198.4,63.6,198.5,63.6z"/>
<path class="st0" d="M207.8,63.9h4.8c1-0.1,2,0.1,3,0.4c1.6,0.7,2.5,2.3,2.4,4.1c0.1,1.7-0.9,3.4-2.5,4.1l0,0
	c0.2,0.2,0.4,0.5,0.5,0.7l3.1,5.6h-3l-3-5.6h-2.6v5.6h-2.7L207.8,63.9z M212.9,70.9c1.2,0.1,2.2-0.8,2.4-2c0-0.1,0-0.3,0-0.4
	c0-1.4-0.6-2.3-2.7-2.3h-2v4.7H212.9z"/>
<path class="st0" d="M229,75h-5.2l-1.3,3.8h-2.8l5.2-14.9h2.8l5.3,14.9h-2.8L229,75z M226.4,66.5c0,0-0.3,1.5-0.6,2.3l-1.3,4h3.9
	l-1.3-4C226.8,67.9,226.4,66.5,226.4,66.5L226.4,66.5z"/>
<path class="st0" d="M235,63.9h5.8c2.5-0.1,4.7,1.8,4.8,4.4c0,0.2,0,0.4,0,0.5c0.2,2.6-1.8,4.7-4.3,4.9c-0.1,0-0.3,0-0.4,0h-3v5.1
	h-2.7L235,63.9z M240.2,71.3c1.3,0.1,2.4-0.9,2.5-2.2c0-0.1,0-0.3,0-0.4c0.1-1.3-0.8-2.4-2.1-2.5c-0.1,0-0.3,0-0.4,0h-2.6v5.1
	L240.2,71.3z"/>
<path class="st0" d="M247.9,63.9h2.7v6.3h6.8v-6.3h2.7v14.9h-2.7v-6.2h-6.8v6.2h-2.7V63.9z"/>
<path class="st0" d="M263.9,63.9h2.7v14.9h-2.7V63.9z"/>
<path class="st0" d="M270.4,63.9h8.9v2.3h-6.2v3.9h5v2.3h-5v4h6.5v2.3h-9.2V63.9z"/>
</svg>
